<?xml version="1.0" encoding="iso-8859-1"?>
<!-- Generator: Adobe Illustrator 16.0.0, SVG Export Plug-In . SVG Version: 6.00 Build 0)  -->
<!DOCTYPE svg PUBLIC "-//W3C//DTD SVG 1.1//EN" "http://www.w3.org/Graphics/SVG/1.1/DTD/svg11.dtd">
<svg version="1.1" id="Capa_1" xmlns="http://www.w3.org/2000/svg" xmlns:xlink="http://www.w3.org/1999/xlink" x="0px" y="0px"
	 width="20px" height="20px" viewBox="0 0 493.951 493.951" style="enable-background:new 0 0 493.951 493.951;"
	 xml:space="preserve">
<g>
	<path d="M493.945,130.313c0-9.98-8.08-18.061-18.058-18.061h-45.146c-2.323,0-4.533,0.476-6.572,1.276
		c-24.441-18.716-62.418-41.402-102.931-41.402c-59.261,0-64.25,16.81-69.171,51.775c-0.762,5.4-1.619,11.511-2.837,18.042
		c-7.016,37.731,3.99,53.59,11.163,59.672c7.802,6.635,18.234,8.275,28.602,4.522c16.189-5.858,28.579-22.872,32.326-44.414
		c0.732-4.11-2.039-8.074-6.177-8.795c-4.144-0.721-8.074,2.045-8.801,6.18c-3.382,19.364-14.245,29.737-22.521,32.734
		c-3.664,1.318-8.996,2.081-13.595-1.818c-7.826-6.649-10.096-23.587-6.053-45.309c1.276-6.856,2.163-13.151,2.943-18.708
		c4.292-30.487,5.444-38.688,54.113-38.688c35.341,0,69.677,20.294,92.403,37.453c-0.567,1.75-0.958,3.588-0.958,5.533v3.166v18.09
		v216.233c-22.674,1.809-31.38,6.206-43.645,13.299c-6.81,3.942-14.523,8.405-28.467,13.53
		c-35.819,13.163-101.449,8.162-107.393,7.666c-24.769-4.812-27.721-18.418-31.146-34.17c-1.75-8.045-3.562-16.379-8.713-22.893
		l-0.659-0.744c-26.776-27.131-22.647-60.562-22.449-61.957c0.254-1.951-0.127-3.83-0.975-5.432
		c-0.095-0.438-0.181-0.869-0.349-1.295c-0.133-0.366-13.56-36.603,11.094-57.423c0.186-0.157,0.337-0.358,0.508-0.526
		c2.099,0.006,3.257,0.006,3.257,0.006v-0.363h3.896c5.012,0,9.079-4.067,9.079-9.079c0-5.013-4.066-9.079-9.079-9.079H141.74
		c-0.833,0-1.625,0.145-2.388,0.364l-95.021-0.006c-14.422,0.006-26.167-11.741-26.167-26.176c0-14.431,11.745-26.167,26.167-26.173
		H238.39c0.993,0,1.833-0.085,2.784-0.109c0.097-6.052,0.23-12.105,0.428-18.146c-1.058,0.035-2.074,0.097-3.212,0.097H44.319
		C19.884,129.187,0,149.077,0,173.518c0,9.803,3.228,18.829,8.627,26.176c0,0,13.781,17.862,28.756,17.862
		c8.636,0,79.367,0.151,119.244,0.243c-15.164,23.599-8.707,51.696-5.813,61.17c2.042,10.131,2.92,19.801,2.87,29.152
		c2.899,14.505,9.818,32.497,25.626,48.698c2.374,3.286,3.644,9.056,4.965,15.161c3.57,16.443,8.969,41.281,45.974,48.232
		l0.878,0.13c3.015,0.271,74.525,6.466,115.706-8.677c15.403-5.663,24.211-10.752,31.292-14.836
		c9.552-5.521,15.864-9.15,34.554-10.806v3.145c0,9.96,8.098,18.052,18.063,18.052h45.146c9.966,0,18.063-8.086,18.063-18.052
		L493.945,130.313z"/>
</g>
<g>
</g>
<g>
</g>
<g>
</g>
<g>
</g>
<g>
</g>
<g>
</g>
<g>
</g>
<g>
</g>
<g>
</g>
<g>
</g>
<g>
</g>
<g>
</g>
<g>
</g>
<g>
</g>
<g>
</g>
</svg>
